<svg xmlns="http://www.w3.org/2000/svg" viewBox="0 0 1200 675">
  <rect width="1200" height="675" fill="#f6f0e8"/>
  <rect y="410" width="1200" height="265" fill="#c99b58"/>
  <path d="M0 460c101-44 224-58 337-31 86 20 184 24 273 0 124-33 227-20 367 49 75 37 148 50 223 39v158H0z" fill="#8f6c36"/>
  <g fill="#fffdf9" stroke="#d6c3af" stroke-width="6">
    <circle cx="220" cy="246" r="36"/>
    <circle cx="252" cy="232" r="33"/>
    <circle cx="284" cy="250" r="34"/>
    <circle cx="256" cy="270" r="34"/>
    <circle cx="532" cy="212" r="34"/>
    <circle cx="564" cy="198" r="32"/>
    <circle cx="598" cy="214" r="33"/>
    <circle cx="572" cy="240" r="31"/>
    <circle cx="864" cy="236" r="35"/>
    <circle cx="898" cy="222" r="33"/>
    <circle cx="928" cy="240" r="34"/>
    <circle cx="900" cy="264" r="32"/>
  </g>
  <text x="74" y="84" font-size="42" font-family="sans-serif" fill="#1f1a17">Bahia Cotton Belt</text>
  <text x="74" y="122" font-size="24" font-family="sans-serif" fill="#6e645d">Illustrative placeholder for project cards</text>
</svg>
