<svg xmlns="http://www.w3.org/2000/svg" viewBox="0 0 64 64">
  <rect width="64" height="64" rx="16" fill="#07C160"/>
  <path d="M24 18c-8.8 0-16 5.9-16 13.2 0 4.4 2.6 8.2 6.7 10.6L13 48l7.2-3.6c1.2.2 2.5.3 3.8.3 8.8 0 16-5.9 16-13.2S32.8 18 24 18zm-6.6 11.2a2.2 2.2 0 1 1 0-4.4 2.2 2.2 0 0 1 0 4.4zm12.8 0a2.2 2.2 0 1 1 0-4.4 2.2 2.2 0 0 1 0 4.4z" fill="#fff"/>
  <path d="M44.5 28C37.6 28 32 32.6 32 38.3c0 3.2 1.8 6 4.8 7.8L36 50l5.3-2.6c1 .2 2.1.3 3.2.3 6.9 0 12.5-4.6 12.5-10.3S51.4 28 44.5 28zm-5.2 8.8a1.8 1.8 0 1 1 0-3.6 1.8 1.8 0 0 1 0 3.6zm10.4 0a1.8 1.8 0 1 1 0-3.6 1.8 1.8 0 0 1 0 3.6z" fill="#E8FFF1"/>
</svg>
