<svg xmlns="http://www.w3.org/2000/svg" viewBox="0 0 320 320">
  <rect width="320" height="320" rx="24" fill="#fffdf9"/>
  <rect x="24" y="24" width="272" height="272" rx="18" fill="#07C160"/>
  <g fill="#ffffff">
    <rect x="48" y="48" width="62" height="62" rx="8"/>
    <rect x="210" y="48" width="62" height="62" rx="8"/>
    <rect x="48" y="210" width="62" height="62" rx="8"/>
    <rect x="136" y="48" width="24" height="24"/>
    <rect x="168" y="48" width="24" height="24"/>
    <rect x="136" y="80" width="56" height="24"/>
    <rect x="136" y="128" width="24" height="24"/>
    <rect x="168" y="128" width="24" height="24"/>
    <rect x="208" y="136" width="24" height="24"/>
    <rect x="240" y="136" width="24" height="24"/>
    <rect x="128" y="176" width="24" height="24"/>
    <rect x="160" y="176" width="24" height="24"/>
    <rect x="192" y="176" width="24" height="24"/>
    <rect x="128" y="208" width="24" height="24"/>
    <rect x="192" y="208" width="24" height="24"/>
    <rect x="224" y="208" width="24" height="24"/>
    <rect x="256" y="208" width="16" height="16"/>
    <rect x="128" y="240" width="24" height="24"/>
    <rect x="160" y="240" width="24" height="24"/>
    <rect x="224" y="240" width="48" height="24"/>
  </g>
  <text x="160" y="306" text-anchor="middle" font-family="sans-serif" font-size="18" fill="#285746">Replace with official WeChat QR</text>
</svg>
